<!-- Save as: logo-icon.svg
     Bright, theme-agnostic, transparent background, scales well for tabs. -->
<svg xmlns="http://www.w3.org/2000/svg" width="256" height="256" viewBox="0 0 256 256" role="img" aria-label="Battery Site Planner Icon">
  <defs>
    <!-- High-contrast neon gradient -->
    <linearGradient id="neon" x1="0" y1="0" x2="1" y2="1">
      <stop offset="0" stop-color="#00E5FF"/>
      <stop offset="0.5" stop-color="#6DFF6A"/>
      <stop offset="1" stop-color="#FFD54A"/>
    </linearGradient>

    <!-- Outer glow to pop on light and dark backgrounds -->
    <filter id="glow" x="-40%" y="-40%" width="180%" height="180%">
      <feGaussianBlur stdDeviation="4" result="b"/>
      <feColorMatrix in="b" type="matrix"
        values="1 0 0 0 0
                0 1 0 0 0
                0 0 1 0 0
                0 0 0 0.9 0" result="g"/>
      <feMerge>
        <feMergeNode in="g"/>
        <feMergeNode in="SourceGraphic"/>
      </feMerge>
    </filter>

    <!-- Subtle shadow for depth on very bright backgrounds -->
    <filter id="shadow" x="-30%" y="-30%" width="160%" height="160%">
      <feDropShadow dx="0" dy="3" stdDeviation="3" flood-color="#000" flood-opacity="0.18"/>
    </filter>
  </defs>

  <!-- Rounded square outline -->
  <g filter="url(#shadow)">
    <rect x="28" y="28" width="200" height="200" rx="56"
          fill="none" stroke="url(#neon)" stroke-width="14" filter="url(#glow)"/>

    <!-- Battery body -->
    <rect x="92" y="86" width="72" height="112" rx="18"
          fill="none" stroke="url(#neon)" stroke-width="14" filter="url(#glow)"/>

    <!-- Battery cap -->
    <rect x="112" y="62" width="32" height="22" rx="8"
          fill="url(#neon)" filter="url(#glow)"/>

    <!-- Lightning inside battery -->
    <path d="M132 98 L114 134 H131 L118 186 L156 138 H138 L152 98 Z"
          fill="url(#neon)" filter="url(#glow)"/>

    <!-- Layout hint: small blocks -->
    <g filter="url(#glow)">
      <rect x="52" y="160" width="18" height="18" rx="6" fill="url(#neon)" opacity="0.95"/>
      <rect x="52" y="186" width="18" height="18" rx="6" fill="url(#neon)" opacity="0.75"/>
      <rect x="186" y="160" width="18" height="18" rx="6" fill="url(#neon)" opacity="0.95"/>
      <rect x="186" y="186" width="18" height="18" rx="6" fill="url(#neon)" opacity="0.75"/>
    </g>
  </g>
</svg>
